<svg width="351.265625px" height="117.2px" xmlns="http://www.w3.org/2000/svg" viewBox="74.3671875 16.4 351.265625 117.2" style="background: rgb(28, 69, 149);" preserveAspectRatio="xMidYMid"><defs><filter id="editing-hole" x="-100%" y="-100%" width="300%" height="300%"><feFlood flood-color="#01080a" result="black"></feFlood><feMorphology operator="dilate" radius="2" in="SourceGraphic" result="erode"></feMorphology><feGaussianBlur in="erode" stdDeviation="4" result="blur"></feGaussianBlur><feOffset in="blur" dx="2" dy="2" result="offset"></feOffset><feComposite operator="atop" in="offset" in2="black" result="merge"></feComposite><feComposite operator="in" in="merge" in2="SourceGraphic" result="inner-shadow"></feComposite></filter></defs><g filter="url(#editing-hole)"><g transform="translate(123.88997793197632, 100.14999961853027)"><path d="M6.40-47.49L6.40-47.49Q6.40-48.58 7.14-49.28L7.14-49.28L7.14-49.28Q7.87-49.98 8.90-49.98L8.90-49.98L8.90-49.98Q9.98-49.98 10.69-49.28L10.69-49.28L10.69-49.28Q11.39-48.58 11.39-47.49L11.39-47.49L11.39-2.50L11.39-2.50Q11.39-1.47 10.69-0.74L10.69-0.74L10.69-0.74Q9.98 0 8.90 0L8.90 0L8.90 0Q7.87 0 7.14-0.74L7.14-0.74L7.14-0.74Q6.40-1.47 6.40-2.50L6.40-2.50L6.40-47.49ZM40.13-35.39L40.13-35.39Q44.67-35.39 48.29-33.47L48.29-33.47L48.29-33.47Q51.90-31.55 53.95-27.87L53.95-27.87L53.95-27.87Q56-24.19 56-19.07L56-19.07L56-2.43L56-2.43Q56-1.41 55.30-0.70L55.30-0.70L55.30-0.70Q54.59 0 53.57 0L53.57 0L53.57 0Q52.48 0 51.78-0.70L51.78-0.70L51.78-0.70Q51.07-1.41 51.07-2.43L51.07-2.43L51.07-19.07L51.07-19.07Q51.07-24.77 47.90-27.74L47.90-27.74L47.90-27.74Q44.74-30.72 39.62-30.72L39.62-30.72L39.62-30.72Q36.48-30.72 33.95-29.50L33.95-29.50L33.95-29.50Q31.42-28.29 29.95-26.14L29.95-26.14L29.95-26.14Q28.48-24 28.48-21.38L28.48-21.38L28.48-2.43L28.48-2.43Q28.48-1.34 27.81-0.67L27.81-0.67L27.81-0.67Q27.14 0 26.05 0L26.05 0L26.05 0Q24.96 0 24.26-0.67L24.26-0.67L24.26-0.67Q23.55-1.34 23.55-2.43L23.55-2.43L23.55-32.51L23.55-32.51Q23.55-33.60 24.26-34.30L24.26-34.30L24.26-34.30Q24.96-35.01 26.05-35.01L26.05-35.01L26.05-35.01Q27.14-35.01 27.81-34.30L27.81-34.30L27.81-34.30Q28.48-33.60 28.48-32.51L28.48-32.51L28.48-30.34L28.48-30.34Q30.59-32.70 33.60-34.05L33.60-34.05L33.60-34.05Q36.61-35.39 40.13-35.39L40.13-35.39ZM94.14-34.82L94.14-34.82Q95.49-34.18 95.49-32.77L95.49-32.77L95.49-32.77Q95.49-32.38 95.30-31.87L95.30-31.87L81.28-1.66L81.28-1.66Q80.45 0 78.85 0L78.85 0L78.85 0Q77.31 0 76.54-1.66L76.54-1.66L62.34-31.81L62.34-31.81Q62.14-32.19 62.14-32.70L62.14-32.70L62.14-32.70Q62.14-34.05 63.55-34.75L63.55-34.75L63.55-34.75Q64-35.01 64.58-35.01L64.58-35.01L64.58-35.01Q65.22-35.01 65.76-34.69L65.76-34.69L65.76-34.69Q66.30-34.37 66.56-33.73L66.56-33.73L78.85-7.10L91.01-33.73L91.01-33.73Q91.26-34.37 91.84-34.72L91.84-34.72L91.84-34.72Q92.42-35.07 93.12-35.07L93.12-35.07L93.12-35.07Q93.70-35.07 94.14-34.82L94.14-34.82ZM117.18-35.33L117.18-35.33Q121.92-35.33 125.57-33.12L125.57-33.12L125.57-33.12Q129.22-30.91 131.23-27.01L131.23-27.01L131.23-27.01Q133.25-23.10 133.25-18.11L133.25-18.11L133.25-18.11Q133.25-17.09 132.61-16.48L132.61-16.48L132.61-16.48Q131.97-15.87 130.94-15.87L130.94-15.87L105.09-15.87L105.09-15.87Q105.60-10.62 109.18-7.36L109.18-7.36L109.18-7.36Q112.77-4.10 118.14-4.10L118.14-4.10L118.14-4.10Q120.45-4.10 122.78-4.90L122.78-4.90L122.78-4.90Q125.12-5.70 126.53-6.91L126.53-6.91L126.53-6.91Q127.36-7.55 128.26-7.55L128.26-7.55L128.26-7.55Q128.96-7.55 129.66-7.04L129.66-7.04L129.66-7.04Q130.50-6.27 130.50-5.31L130.50-5.31L130.50-5.31Q130.50-4.48 129.79-3.84L129.79-3.84L129.79-3.84Q127.68-2.05 124.42-0.86L124.42-0.86L124.42-0.86Q121.15 0.32 118.14 0.32L118.14 0.32L118.14 0.32Q113.02 0.32 108.99-1.95L108.99-1.95L108.99-1.95Q104.96-4.22 102.69-8.29L102.69-8.29L102.69-8.29Q100.42-12.35 100.42-17.47L100.42-17.47L100.42-17.47Q100.42-22.66 102.56-26.72L102.56-26.72L102.56-26.72Q104.70-30.78 108.51-33.06L108.51-33.06L108.51-33.06Q112.32-35.33 117.18-35.33L117.18-35.33ZM117.18-30.91L117.18-30.91Q112.32-30.91 109.12-27.90L109.12-27.90L109.12-27.90Q105.92-24.90 105.22-19.97L105.22-19.97L128.64-19.97L128.64-19.97Q128.13-24.90 125.06-27.90L125.06-27.90L125.06-27.90Q121.98-30.91 117.18-30.91L117.18-30.91ZM158.14-35.39L158.14-35.39Q162.69-35.39 166.30-33.47L166.30-33.47L166.30-33.47Q169.92-31.55 171.97-27.87L171.97-27.87L171.97-27.87Q174.02-24.19 174.02-19.07L174.02-19.07L174.02-2.43L174.02-2.43Q174.02-1.41 173.31-0.70L173.31-0.70L173.31-0.70Q172.61 0 171.58 0L171.58 0L171.58 0Q170.50 0 169.79-0.70L169.79-0.70L169.79-0.70Q169.09-1.41 169.09-2.43L169.09-2.43L169.09-19.07L169.09-19.07Q169.09-24.77 165.92-27.74L165.92-27.74L165.92-27.74Q162.75-30.72 157.63-30.72L157.63-30.72L157.63-30.72Q154.50-30.72 151.97-29.50L151.97-29.50L151.97-29.50Q149.44-28.29 147.97-26.14L147.97-26.14L147.97-26.14Q146.50-24 146.50-21.38L146.50-21.38L146.50-2.43L146.50-2.43Q146.50-1.34 145.82-0.67L145.82-0.67L145.82-0.67Q145.15 0 144.06 0L144.06 0L144.06 0Q142.98 0 142.27-0.67L142.27-0.67L142.27-0.67Q141.57-1.34 141.57-2.43L141.57-2.43L141.57-32.51L141.57-32.51Q141.57-33.60 142.27-34.30L142.27-34.30L142.27-34.30Q142.98-35.01 144.06-35.01L144.06-35.01L144.06-35.01Q145.15-35.01 145.82-34.30L145.82-34.30L145.82-34.30Q146.50-33.60 146.50-32.51L146.50-32.51L146.50-30.34L146.50-30.34Q148.61-32.70 151.62-34.05L151.62-34.05L151.62-34.05Q154.62-35.39 158.14-35.39L158.14-35.39ZM200.32-4.93L200.32-4.93Q201.34-4.93 201.98-4.22L201.98-4.22L201.98-4.22Q202.62-3.52 202.62-2.43L202.62-2.43L202.62-2.43Q202.62-1.41 201.86-0.70L201.86-0.70L201.86-0.70Q201.09 0 199.94 0L199.94 0L198.59 0L198.59 0Q195.20 0 192.51-1.63L192.51-1.63L192.51-1.63Q189.82-3.26 188.32-6.05L188.32-6.05L188.32-6.05Q186.82-8.83 186.82-12.35L186.82-12.35L186.82-29.44L182.66-29.44L182.66-29.44Q181.63-29.44 181.02-30.05L181.02-30.05L181.02-30.05Q180.42-30.66 180.42-31.55L180.42-31.55L180.42-31.55Q180.42-32.51 181.02-33.12L181.02-33.12L181.02-33.12Q181.63-33.73 182.66-33.73L182.66-33.73L186.82-33.73L186.82-43.65L186.82-43.65Q186.82-44.74 187.49-45.44L187.49-45.44L187.49-45.44Q188.16-46.14 189.25-46.14L189.25-46.14L189.25-46.14Q190.34-46.14 191.04-45.44L191.04-45.44L191.04-45.44Q191.74-44.74 191.74-43.65L191.74-43.65L191.74-33.73L198.98-33.73L198.98-33.73Q200-33.73 200.61-33.12L200.61-33.12L200.61-33.12Q201.22-32.51 201.22-31.55L201.22-31.55L201.22-31.55Q201.22-30.66 200.61-30.05L200.61-30.05L200.61-30.05Q200-29.44 198.98-29.44L198.98-29.44L191.74-29.44L191.74-12.35L191.74-12.35Q191.74-9.09 193.66-7.01L193.66-7.01L193.66-7.01Q195.58-4.93 198.59-4.93L198.59-4.93L200.32-4.93ZM243.52-49.98L243.52-49.98Q244.54-49.98 245.18-49.34L245.18-49.34L245.18-49.34Q245.82-48.70 245.82-47.68L245.82-47.68L245.82-47.68Q245.82-46.72 245.18-46.08L245.18-46.08L245.18-46.08Q244.54-45.44 243.52-45.44L243.52-45.44L228.29-45.44L228.29-2.50L228.29-2.50Q228.29-1.47 227.58-0.74L227.58-0.74L227.58-0.74Q226.88 0 225.79 0L225.79 0L225.79 0Q224.77 0 224.03-0.74L224.03-0.74L224.03-0.74Q223.30-1.47 223.30-2.50L223.30-2.50L223.30-45.44L208.13-45.44L208.13-45.44Q207.10-45.44 206.46-46.08L206.46-46.08L206.46-46.08Q205.82-46.72 205.82-47.68L205.82-47.68L205.82-47.68Q205.82-48.70 206.46-49.34L206.46-49.34L206.46-49.34Q207.10-49.98 208.13-49.98L208.13-49.98L243.52-49.98Z" fill="#ffffff"></path></g></g><style>text {
  font-size: 64px;
  font-family: Arial Black;
  dominant-baseline: central;
  text-anchor: middle;
}</style></svg>